Coordinates
version=1
nRows=22
nColumns=24
inDegrees=yes

Units are S.I. units (second, meters, Newtons, ...)
Angles are in degrees.

endheader
time	pelvis_tilt	pelvis_list	pelvis_rotation	pelvis_tx	pelvis_ty	pelvis_tz	hip_flexion_r	hip_adduction_r	hip_rotation_r	knee_angle_r	ankle_angle_r	subtalar_angle_r	mtp_angle_r	hip_flexion_l	hip_adduction_l	hip_rotation_l	knee_angle_l	ankle_angle_l	subtalar_angle_l	mtp_angle_l	lumbar_extension	lumbar_bending	lumbar_rotation
      6.48000000	     -0.58002570	     -4.30806941	     16.19565064	     -1.37131881	      0.66915280	      0.20737628	     15.16874300	      5.61679004	     -9.17541867	    -14.10905523	      7.14866679	    -17.53263330	      0.00000000	      8.33747154	     -1.91312505	     12.62156597	    -62.28080842	    -15.77392092	     -9.65367780	      0.00000000	    -13.55146721	      2.85538719	     -2.14172624
      6.49000000	     -0.51124093	     -4.44633310	     15.84623178	     -1.36231410	      0.67030304	      0.20830666	     14.06925712	      6.16092062	     -9.03290058	    -13.58071293	      7.82709457	    -17.03733065	      0.00000000	     10.61570142	     -1.63468902	     12.14805804	    -64.69802384	    -13.48723199	    -11.64437696	      0.00000000	    -13.97518556	      2.76641197	     -1.22973881
      6.50000000	     -0.67643081	     -4.36140714	     15.37567895	     -1.35334069	      0.67138566	      0.20930012	     13.22458885	      6.37001007	     -9.16648668	    -13.22593372	      9.00270629	    -15.74002383	      0.00000000	     12.96458930	     -1.09095113	     11.56180898	    -66.57792472	    -10.98210942	    -13.28828174	      0.00000000	    -14.15663613	      2.33277223	     -0.41802118
      6.51000000	     -0.69640603	     -4.16634106	     14.77115211	     -1.34431241	      0.67263087	      0.21044273	     12.10231666	      6.58391056	     -8.81987020	    -12.68223155	      9.70509955	    -15.10977346	      0.00000000	     15.01331988	     -0.56027347	     10.84072233	    -67.92308651	     -8.57298600	    -14.62343949	      0.00000000	    -14.49393197	      1.78845652	      0.43277597
      6.52000000	     -0.76355278	     -3.88688894	     14.08448422	     -1.33529548	      0.67381236	      0.21163198	     10.99205319	      6.70229671	     -8.33611305	    -12.11075868	     10.28653321	    -14.69044584	      0.00000000	     16.99858813	      0.00085552	     10.04646581	    -68.78981237	     -6.42416443	    -15.71764110	      0.00000000	    -14.73745700	      1.12963847	      1.26085326
      6.53000000	     -0.89089030	     -3.53532512	     13.33097359	     -1.32630302	      0.67489343	      0.21282418	      9.92439606	      6.71068552	     -7.81424614	    -11.53449079	     10.88624140	    -14.17996359	      0.00000000	     18.93763620	      0.56893456	      9.18590367	    -69.20301733	     -4.41314941	    -16.38849929	      0.00000000	    -14.87436341	      0.38039576	      1.97125380
      6.54000000	     -1.02920431	     -3.18220757	     12.57684064	     -1.31735472	      0.67584235	      0.21393809	      8.88237961	      6.67429192	     -7.34285622	    -10.97872444	     11.50221254	    -13.58515534	      0.00000000	     20.81126172	      1.06946266	      8.33172425	    -69.21057407	     -2.55223842	    -16.74544422	      0.00000000	    -14.93664915	     -0.33873271	      2.55904708
      6.55000000	     -1.15879947	     -2.84928524	     11.83592126	     -1.30846558	      0.67664138	      0.21494074	      7.85979858	      6.61809551	     -6.93000568	    -10.45646698	     12.11445592	    -12.97932405	      0.00000000	     22.59641709	      1.48959311	      7.50944071	    -68.82584952	     -0.89085410	    -17.01595247	      0.00000000	    -14.95323662	     -0.99077137	      3.05245160
      6.56000000	     -1.29026341	     -2.59112615	     11.15735157	     -1.29965352	      0.67723709	      0.21576685	      6.92056142	      6.57115228	     -6.79871235	    -10.04564132	     12.90732351	    -12.03913537	      0.00000000	     24.32121812	      1.78915560	      6.76862564	    -68.08765434	      0.75671262	    -17.07015164	      0.00000000	    -14.92190270	     -1.49888174	      3.39962700
      6.57000000	     -1.40052219	     -2.32294636	     10.47236973	     -1.29086887	      0.67769518	      0.21648259	      5.93892151	      6.51240928	     -6.38860773	     -9.59504047	     13.42156024	    -11.64012962	      0.00000000	     25.88333919	      2.05796165	      6.05714264	    -66.90274478	      1.85755943	    -17.65886605	      0.00000000	    -14.89530732	     -1.98568534	      3.74810999
      6.58000000	     -1.53708277	     -2.10525168	      9.85680579	     -1.28211514	      0.67793690	      0.21704096	      5.01414059	      6.46418020	     -6.04789582	     -9.17562167	     14.02760561	    -11.07610213	      0.00000000	     27.36100282	      2.26785441	      5.46368897	    -65.33839097	      2.74244336	    -18.28014677	      0.00000000	    -14.81890601	     -2.38416207	      4.06524854
      6.59000000	     -1.65851604	     -1.93103372	      9.29888431	     -1.27332941	      0.67800290	      0.21741094	      4.12218028	      6.41982457	     -5.88950244	     -8.83732376	     14.74942988	    -10.31456040	      0.00000000	     28.66925006	      2.42023460	      4.96069375	    -63.35194066	      3.20357148	    -19.34005145	      0.00000000	    -14.73104842	     -2.66143466	      4.27085570
      6.60000000	     -1.74645381	     -1.82425188	      8.80605938	     -1.26449930	      0.67787723	      0.21767888	      3.22289399	      6.43861357	     -5.75557908	     -8.53039201	     15.41087269	     -9.79748945	      0.00000000	     29.78596708	      2.47808485	      4.54924325	    -60.95780464	      3.35247226	    -20.77564815	      0.00000000	    -14.66976707	     -2.83769258	      4.40084416
      6.61000000	     -1.83843208	     -1.77178487	      8.31731359	     -1.25556858	      0.67755936	      0.21792226	      2.29928657	      6.51960560	     -5.42274952	     -8.17049636	     15.99271710	     -9.48246660	      0.00000000	     30.72062597	      2.43720353	      4.20616081	    -58.15515834	      3.26150467	    -22.20024789	      0.00000000	    -14.57965874	     -2.95918752	      4.61965950
      6.62000000	     -1.89816941	     -1.77375324	      7.86792717	     -1.24653181	      0.67707964	      0.21805307	      1.35619926	      6.64154040	     -5.16161428	     -7.84221190	     16.52476391	     -9.22755355	      0.00000000	     31.41161709	      2.32480582	      3.96006227	    -54.90844785	      2.77454715	    -23.99937800	      0.00000000	    -14.50461881	     -2.97118389	      4.74778101
      6.63000000	     -1.94996792	     -1.85777328	      7.44685124	     -1.23737107	      0.67640912	      0.21813864	      0.41857771	      6.83848895	     -4.97365176	     -7.53974818	     17.01357610	     -9.02218818	      0.00000000	     31.88477777	      2.10602273	      3.82435487	    -51.24764677	      2.15342231	    -25.75668563	      0.00000000	    -14.41496439	     -2.88977698	      4.82572970
      6.64000000	     -1.98955779	     -2.00378220	      6.98413479	     -1.22804444	      0.67558316	      0.21821322	     -0.54748189	      7.09031540	     -4.71981382	     -7.23509099	     17.50428591	     -8.78566245	      0.00000000	     32.10783680	      1.77084735	      3.76381490	    -47.17016436	      1.50426864	    -27.10655998	      0.00000000	    -14.30129866	     -2.74108292	      5.01407519
      6.65000000	     -2.00888068	     -2.21684115	      6.48186135	     -1.21855080	      0.67460678	      0.21827175	     -1.53449408	      7.39522009	     -4.47864244	     -6.95804173	     17.97392481	     -8.50324389	      0.00000000	     32.07181870	      1.31678474	      3.79108132	    -42.69622235	      0.92714675	    -27.92195733	      0.00000000	    -14.18206808	     -2.51516602	      5.26384478
      6.66000000	     -2.01721544	     -2.51146111	      5.93167515	     -1.20886414	      0.67346359	      0.21833021	     -2.53950369	      7.76634742	     -4.25103101	     -6.70141071	     18.45008950	     -8.17488385	      0.00000000	     31.79332043	      0.73405637	      3.93222055	    -37.87423204	      0.52261548	    -28.06379198	      0.00000000	    -14.03423576	     -2.20865619	      5.58939364
      6.67000000	     -2.02800791	     -2.89763460	      5.30222285	     -1.19898825	      0.67214037	      0.21839166	     -3.54288883	      8.20766554	     -3.96371900	     -6.48633547	     18.90568881	     -7.86539707	      0.00000000	     31.30382154	      0.01056113	      4.20348401	    -32.77676165	      0.31033571	    -27.46111769	      0.00000000	    -13.85113652	     -1.79904644	      6.04632920
      6.68000000	     -1.88074586	     -3.30422829	      4.65063501	     -1.18883768	      0.67080993	      0.21844403	     -4.73839966	      8.65568740	     -3.78081155	     -6.29164433	     19.34865609	     -7.41423117	      0.00000000	     30.42178835	     -0.76793641	      4.69301091	    -27.45886094	      0.26795660	    -26.20104978	      0.00000000	    -13.81572535	     -1.38657322	      6.52468097
      6.69000000	     -1.64783516	     -3.76028126	      3.93991680	     -1.17842664	      0.66940426	      0.21848539	     -6.03689802	      9.12147145	     -3.56977486	     -6.15169981	     19.79422033	     -6.89220942	      0.00000000	     29.30070477	     -1.65216925	      5.32060143	    -22.12458530	      0.52155624	    -24.13639452	      0.00000000	    -13.85085223	     -0.91523995	      7.08359167
